# xmcd
# 
# Track frame offsets:
#     150
#     17686
#     33355
#     50147
#     71060
#     88491
#     108510
#     122202
#     136606
#     153285
#     171552
#     185411
#     210470
#     225696
#     247244
#     266037
# 
# Disc length: 3848
# 
# Revision: 1
# Processed by: cddbd v1.5.2PL0 Copyright (c) Steve Scherf et al.
# Submitted via: fre:ac v1.0.17
# 
DISCID=ed0f0610
DTITLE=Mississippi Heat - Warning Shot
DYEAR=2014
DGENRE=Blues
TTITLE0=Sweet Poison
TTITLE1=Alley Cat Boogie
TTITLE2=Come To Mama
TTITLE3=I Don't Know
TTITLE4=Yeah Now Baby
TTITLE5=Birthday Song
TTITLE6=Nowhere To Go
TTITLE7=Warning Shot
TTITLE8=Swingy Dingy Baby
TTITLE9=Too Sad To Wipe My Tears
TTITLE10=Recession Blues
TTITLE11=Evaporated Blues
TTITLE12=Your Cheating Heart
TTITLE13=A Part Of Something Special
TTITLE14=What Cha Say?
TTITLE15=Working Man
EXTD=
EXTT0=
EXTT1=
EXTT2=
EXTT3=
EXTT4=
EXTT5=
EXTT6=
EXTT7=
EXTT8=
EXTT9=
EXTT10=
EXTT11=
EXTT12=
EXTT13=
EXTT14=
EXTT15=
PLAYORDER=
